<svg xmlns="http://www.w3.org/2000/svg" shape-rendering="geometricPrecision" text-rendering="geometricPrecision" image-rendering="optimizeQuality" fill-rule="evenodd" clip-rule="evenodd" viewBox="0 0 512 508.892"><path fill="#D60000" fill-rule="nonzero" d="M163.589 348.019c8.264 8.644 16.826 16.799 25.903 24.203a7.535 7.535 0 012.651 8.215L154.46 503.4a7.511 7.511 0 01-3.798 4.654 7.533 7.533 0 01-10.144-3.244c-15.359-29.58-34.948-54.967-57.936-76.973-23.016-22.04-49.468-40.714-78.511-56.828a7.5 7.5 0 01-3.737-4.473 7.528 7.528 0 014.984-9.406l125.781-39.059a7.55 7.55 0 017.962 2.359c7.932 9.419 15.994 18.666 24.528 27.589z"/><path fill="#FF3F2E" d="M184.947 378.227c-18.884-15.373-35.403-33.684-51.636-52.96L7.53 364.324c59.345 32.896 108.154 76.324 139.683 137.036l37.734-123.133z"/><path fill="#D60000" fill-rule="nonzero" d="M375.523 189.699c-8.063-9.851-16.365-18.976-24.914-27.322-8.571-8.37-17.488-16.074-26.755-23.075a7.527 7.527 0 01-2.529-8.608L360.261 5.31a7.52 7.52 0 019.392-4.977 7.503 7.503 0 014.446 3.691c16.119 29.06 34.8 55.525 56.851 78.553 22.01 22.991 47.399 42.58 76.975 57.941a7.519 7.519 0 013.239 10.126 7.497 7.497 0 01-4.622 3.784l-122.988 37.69c-3.005.924-6.148-.133-8.031-2.419z"/><path fill="#FF3F2E" d="M381.347 184.934c-16.361-20.009-33.979-37.299-52.96-51.636L367.445 7.517c32.895 59.345 76.324 108.154 137.036 139.682l-123.134 37.735z"/><path fill="#D60000" fill-rule="nonzero" d="M134.163 333.379c6.261 4.291 7.731 6.157 9.802 11.491l-36.126 36.127a7.53 7.53 0 01-10.646-10.647l36.97-36.971zM165.421 367.676c3.67 6.513 13.022 5.865 12.868 8.425l-37.674 37.674a7.53 7.53 0 01-10.646-10.647l35.452-35.452z"/><path fill="#D60000" fill-rule="nonzero" d="M163.182 162.884c28.224-28.224 64.001-43.579 99.019-45.583 35.282-2.019 69.875 9.496 95.402 35.023 25.628 25.629 37.184 60.429 35.149 95.971-2.017 35.249-17.427 71.212-45.744 99.527-28.224 28.224-64.001 43.579-99.019 45.584-35.284 2.018-69.873-9.495-95.403-35.025-25.627-25.628-37.183-60.427-35.149-95.968 2.018-35.249 17.43-71.214 45.745-99.529z"/><ellipse fill="#FFDA45" transform="rotate(-45 435.785 -180.251) scale(2.51994 2.38694)" rx="54.764" ry="51.552"/><path fill="#D60000" fill-rule="nonzero" d="M349.228 142.716c-7.002 7.002-8.416-1.593-13.212-7.312l37.455-38.225a7.53 7.53 0 0110.647 0 7.53 7.53 0 010 10.647l-34.89 34.89z"/><path fill="#FF321F" d="M168.083 168.343a155.343 155.343 0 0115.394-13.493l172.121 172.121a155.575 155.575 0 01-13.492 15.394 155.575 155.575 0 01-15.394 13.492L154.591 183.736a155.338 155.338 0 0113.492-15.393zm54.866-35.238c16.164-5.902 32.913-8.749 49.3-8.472l113.566 113.565c.277 16.387-2.57 33.136-8.472 49.301L222.949 133.105zm64.291 244.496c-16.164 5.904-32.914 8.748-49.3 8.473L124.374 272.508c-.275-16.386 2.569-33.136 8.472-49.3L287.24 377.601z"/><path fill="#D60000" fill-rule="nonzero" d="M378.541 178.956c-5.719-4.026-15.341-5.953-8.339-12.955l36.047-36.046a7.53 7.53 0 0110.646 10.647l-38.354 38.354z"/></svg>