<?xml version="1.0" encoding="UTF-8"?>
<!DOCTYPE svg PUBLIC "-//W3C//DTD SVG 1.1//EN" "http://www.w3.org/Graphics/SVG/1.1/DTD/svg11.dtd">
<!-- Creator: CorelDRAW -->
<svg xmlns="http://www.w3.org/2000/svg" xml:space="preserve" width="512px" height="512px" version="1.1" shape-rendering="geometricPrecision" text-rendering="geometricPrecision" image-rendering="optimizeQuality" fill-rule="evenodd" clip-rule="evenodd"
viewBox="0 0 512 512.001"
 xmlns:xlink="http://www.w3.org/1999/xlink"
 xmlns:xodm="http://www.corel.com/coreldraw/odm/2003">
 <g id="Layer_x0020_1">
  <metadata id="CorelCorpID_0Corel-Layer"/>
  <path fill="#0088FF" d="M305.55 0.842l79.362 79.362c1.125,1.125 1.123,2.966 0.003,4.086l-5.772 5.772 -83.447 -83.448 5.771 -5.772c1.122,-1.122 2.96,-1.123 4.083,0zm-207.811 373.15l24.402 -24.402c0.602,-0.602 0.879,-1.414 0.836,-2.21l0.214 0.214c-31.167,-134.278 29.754,-32.837 73.674,-76.758l79.307 -79.307c8.93,-8.925 9.801,-10.251 10.463,-18.152 3.894,-46.403 -51.142,-76.702 58.163,-54.459l0.7 0.701c1.123,1.121 2.966,1.121 4.087,0l24.403 -24.402 -83.447 -83.448 -24.403 24.403c-0.963,0.963 -1.097,2.452 -0.412,3.564 19.363,100.484 -1.076,60.33 -53.466,60.948 -10.374,0.12 -12.095,3.01 -21.006,11.841l-77.693 76.987c-42.552,42.157 59.807,102.068 -73.631,73.826 -1.126,-0.832 -2.739,-0.741 -3.76,0.28l-24.403 24.403 85.972 85.971zm-96.899 -70.962l81.887 81.887c1.12,1.12 2.968,1.118 4.085,0.002l5.771 -5.772 -85.971 -85.971 -5.772 5.772c-1.12,1.12 -1.12,2.962 0,4.082z"/>
  <path fill="#ED1B24" d="M431.795 127.087l79.362 79.362c1.123,1.123 1.122,2.964 0.002,4.085l-5.772 5.771 -83.447 -83.448 5.772 -5.77c1.121,-1.122 2.958,-1.125 4.083,0zm-207.813 373.15l24.402 -24.404c0.603,-0.602 0.882,-1.414 0.837,-2.208l0.213 0.212c-31.165,-134.277 29.754,-32.837 73.674,-76.758l79.308 -79.305c8.929,-8.926 9.801,-10.253 10.463,-18.153 3.894,-46.403 -51.141,-76.702 58.163,-54.46l0.701 0.702c1.121,1.122 2.964,1.122 4.087,0l24.402 -24.403 -83.447 -83.447 -24.403 24.402c-0.964,0.966 -1.099,2.457 -0.411,3.568 19.361,100.479 -1.079,60.328 -53.467,60.946 -10.373,0.12 -12.094,3.008 -21.007,11.841l-77.692 76.986c-42.553,42.157 59.807,102.066 -73.629,73.826 -1.127,-0.833 -2.741,-0.741 -3.762,0.28l-24.404 24.403 85.972 85.972zm-96.897 -70.963l81.886 81.888c1.12,1.119 2.969,1.117 4.085,0.001l5.771 -5.772 -85.972 -85.972 -5.77 5.772c-1.12,1.12 -1.12,2.963 0,4.083z"/>
  <path fill="#FFC639" d="M353.97 366.219l-26.179 26.179c-2.595,-3.198 -4.15,-7.275 -4.15,-11.717 0,-10.28 8.332,-18.612 18.612,-18.612 4.442,0 8.519,1.555 11.717,4.15z"/>
  <path fill="#FFC639" d="M245.103 310.508l25.103 -24.878c6.044,3.076 10.186,9.351 10.186,16.601 0,10.28 -8.332,18.612 -18.612,18.612 -7.307,0 -13.632,-4.207 -16.677,-10.335z"/>
  <path fill="#FFC639" d="M139.676 415.93l26.006 26.006c4.64,-3.385 7.655,-8.865 7.655,-15.046 0,-10.28 -8.334,-18.614 -18.614,-18.614 -6.182,0 -11.662,3.014 -15.047,7.654zm-3.565 10.958c0,10.28 8.334,18.614 18.614,18.614 1.308,0 2.589,-0.136 3.819,-0.394l-22.04 -22.04c-0.258,1.23 -0.393,2.511 -0.393,3.82z"/>
  <path fill="#FFC639" d="M462.698 208.445c0,10.28 8.332,18.613 18.612,18.613 6.654,0 12.487,-3.489 15.779,-8.74l-25.652 -25.652c-5.25,3.292 -8.739,9.125 -8.739,15.779zm37.09 2.259c0.088,-0.74 0.135,-1.495 0.135,-2.259 0,-10.28 -8.333,-18.612 -18.613,-18.612 -0.764,0 -1.519,0.046 -2.258,0.135l20.736 20.736z"/>
  <path fill="#FFC639" d="M358.418 298.956c0,10.28 8.331,18.612 18.612,18.612 10.28,0 18.612,-8.332 18.612,-18.612 0,-10.28 -8.332,-18.612 -18.612,-18.612 -10.281,0 -18.612,8.332 -18.612,18.612z"/>
  <path fill="#FFC639" d="M296.952 323.107c0,10.28 8.332,18.612 18.612,18.612 10.28,0 18.613,-8.332 18.613,-18.612 0,-10.28 -8.333,-18.612 -18.613,-18.612 -10.28,0 -18.612,8.332 -18.612,18.612z"/>
  <path fill="#FFC639" d="M325.289 255.779c0,10.28 8.332,18.613 18.612,18.613 10.28,0 18.613,-8.333 18.613,-18.613 0,-10.28 -8.333,-18.612 -18.613,-18.612 -10.28,0 -18.612,8.332 -18.612,18.612z"/>
  <path fill="#FFC639" d="M250.053 371.929c0,10.28 8.332,18.612 18.613,18.612 10.279,0 18.612,-8.332 18.612,-18.612 0,-10.28 -8.333,-18.612 -18.612,-18.612 -10.281,0 -18.613,8.332 -18.613,18.612z"/>
  <path fill="#FFC639" d="M403.565 183.738c0,10.28 8.332,18.612 18.613,18.612 10.28,0 18.612,-8.332 18.612,-18.612 0,-10.28 -8.332,-18.612 -18.612,-18.612 -10.281,0 -18.613,8.332 -18.613,18.612z"/>
  <path fill="#FFC639" d="M194.843 438.376c0,10.281 8.332,18.613 18.612,18.613 10.281,0 18.613,-8.332 18.613,-18.613 0,-10.28 -8.332,-18.612 -18.613,-18.612 -10.28,0 -18.612,8.332 -18.612,18.612z"/>
  <path fill="#FFC639" d="M227.726 239.975l-26.179 26.179c-2.595,-3.198 -4.15,-7.275 -4.15,-11.717 0,-10.28 8.332,-18.612 18.612,-18.612 4.442,0 8.519,1.555 11.717,4.15z"/>
  <path fill="#FFC639" d="M118.859 184.264l25.103 -24.878c6.044,3.075 10.186,9.351 10.186,16.601 0,10.28 -8.332,18.612 -18.612,18.612 -7.307,0 -13.632,-4.207 -16.677,-10.335z"/>
  <path fill="#FFC639" d="M13.432 289.686l26.005 26.006c4.641,-3.385 7.655,-8.865 7.655,-15.047 0,-10.28 -8.334,-18.614 -18.614,-18.614 -6.181,0 -11.661,3.015 -15.046,7.655zm-3.566 10.957c0,10.28 8.334,18.614 18.614,18.614 1.309,0 2.59,-0.135 3.82,-0.393l-22.04 -22.04c-0.258,1.23 -0.394,2.511 -0.394,3.819z"/>
  <path fill="#FFC639" d="M336.454 82.201c0,10.28 8.332,18.613 18.612,18.613 6.654,0 12.487,-3.489 15.779,-8.74l-25.652 -25.652c-5.251,3.292 -8.739,9.125 -8.739,15.779zm37.09 2.259c0.088,-0.74 0.134,-1.495 0.134,-2.259 0,-10.28 -8.332,-18.612 -18.612,-18.612 -0.764,0 -1.519,0.046 -2.258,0.135l20.736 20.736z"/>
  <path fill="#FFC639" d="M232.174 172.712c0,10.28 8.331,18.612 18.612,18.612 10.28,0 18.612,-8.332 18.612,-18.612 0,-10.28 -8.332,-18.612 -18.612,-18.612 -10.281,0 -18.612,8.332 -18.612,18.612z"/>
  <path fill="#FFC639" d="M170.708 196.863c0,10.28 8.332,18.612 18.612,18.612 10.28,0 18.612,-8.332 18.612,-18.612 0,-10.28 -8.332,-18.613 -18.612,-18.613 -10.28,0 -18.612,8.333 -18.612,18.613z"/>
  <path fill="#FFC639" d="M199.045 129.535c0,10.28 8.332,18.613 18.612,18.613 10.28,0 18.612,-8.333 18.612,-18.613 0,-10.28 -8.332,-18.612 -18.612,-18.612 -10.28,0 -18.612,8.332 -18.612,18.612z"/>
  <path fill="#FFC639" d="M123.809 245.685c0,10.28 8.332,18.612 18.612,18.612 10.28,0 18.613,-8.332 18.613,-18.612 0,-10.28 -8.333,-18.612 -18.613,-18.612 -10.28,0 -18.612,8.332 -18.612,18.612z"/>
  <path fill="#FFC639" d="M277.321 57.494c0,10.28 8.332,18.612 18.613,18.612 10.28,0 18.612,-8.332 18.612,-18.612 0,-10.28 -8.332,-18.612 -18.612,-18.612 -10.281,0 -18.613,8.332 -18.613,18.612z"/>
  <path fill="#FFC639" d="M68.599 312.132c0,10.281 8.332,18.613 18.612,18.613 10.281,0 18.613,-8.332 18.613,-18.613 0,-10.28 -8.332,-18.612 -18.613,-18.612 -10.28,0 -18.612,8.332 -18.612,18.612z"/>
 </g>
</svg>
